Coordinates
version=1
nRows=8
nColumns=40
inDegrees=yes

Units are S.I. units (second, meters, Newtons, ...)
If the header above contains a line with 'inDegrees', this indicates whether rotational values are in degrees (yes) or radians (no).

endheader
time	pelvis_tilt	pelvis_list	pelvis_rotation	pelvis_tx	pelvis_ty	pelvis_tz	hip_flexion_r	hip_adduction_r	hip_rotation_r	knee_angle_r	knee_angle_r_beta	ankle_angle_r	subtalar_angle_r	mtp_angle_r	hip_flexion_l	hip_adduction_l	hip_rotation_l	knee_angle_l	knee_angle_l_beta	ankle_angle_l	subtalar_angle_l	mtp_angle_l	lumbar_extension	lumbar_bending	lumbar_rotation	arm_flex_r	arm_add_r	arm_rot_r	elbow_flex_r	pro_sup_r	wrist_flex_r	wrist_dev_r	arm_flex_l	arm_add_l	arm_rot_l	elbow_flex_l	pro_sup_l	wrist_flex_l	wrist_dev_l
      1.80000000	      4.78953332	      1.20693255	     -0.93850725	     -0.31474987	      0.97702561	     -0.80523143	      2.93482782	      2.81939684	    -13.10539968	     16.54434462	      0.28875329	     -4.45971258	      0.00000000	      0.00000000	     24.39286647	     -8.42025533	      0.52046190	     31.95823609	      0.55777644	    -11.97328366	      0.00000000	      0.00000000	    -10.93309164	     -0.42357895	      0.05029097	     80.33660832	    -16.10632499	     48.61432495	     58.05587554	     86.91172335	      0.00000000	      0.00000000	     76.09852762	     -7.30415249	     36.99299688	     52.32343921	     84.27898347	      0.00000000	      0.00000000
      1.80500000	      4.82119010	      1.25110429	     -0.89013553	     -0.31505867	      0.97711768	     -0.80520350	      2.90890065	      2.77689378	    -13.16626316	     16.51336191	      0.28821254	     -4.47614416	      0.00000000	      0.00000000	     24.43117810	     -8.25410918	      0.53624423	     31.25349839	      0.54547645	    -12.06260143	      0.00000000	      0.00000000	    -11.01554883	     -0.43325498	      0.04027533	     80.41574418	    -16.16062053	     48.66983465	     58.15338182	     86.90005074	      0.00000000	      0.00000000	     76.22587790	     -7.32104848	     37.13035682	     52.30184721	     84.16479769	      0.00000000	      0.00000000
      1.81000000	      4.82852189	      1.34978722	     -0.88244906	     -0.31533360	      0.97716735	     -0.80516782	      2.93034783	      2.67495626	    -13.15080924	     16.53965005	      0.28867135	     -4.45138789	      0.00000000	      0.00000000	     24.46750629	     -8.04683350	      0.50423424	     30.51472674	      0.53258245	    -12.11804617	      0.00000000	      0.00000000	    -11.05359955	     -0.49748161	      0.04063518	     80.50567879	    -16.13687854	     48.73612651	     58.09403591	     86.92856873	      0.00000000	      0.00000000	     76.27509330	     -7.30333645	     37.12745897	     52.20342309	     84.14092530	      0.00000000	      0.00000000
      1.81500000	      4.84909684	      1.37915763	     -0.85868935	     -0.31565541	      0.97726535	     -0.80507587	      2.88374015	      2.67635670	    -13.05673086	     16.44874400	      0.28708474	     -4.45771594	      0.00000000	      0.00000000	     24.50490673	     -7.91360789	      0.53849987	     29.77477216	      0.51966781	    -12.32815562	      0.00000000	      0.00000000	    -11.10487575	     -0.49041557	      0.07450697	     80.54829755	    -16.11829017	     48.70709593	     57.98472482	     87.07357854	      0.00000000	      0.00000000	     76.32607204	     -7.31095887	     37.23577844	     52.27515008	     83.19702494	      0.00000000	      0.00000000
      1.82000000	      4.85639048	      1.42662740	     -0.79984099	     -0.31594842	      0.97726571	     -0.80509896	      2.91139720	      2.61426117	    -13.18769779	     16.45636681	      0.28721778	     -4.46742846	      0.00000000	      0.00000000	     24.57129938	     -7.73693743	      0.57752059	     29.04483386	      0.50692798	    -12.48027452	      0.00000000	      0.00000000	    -11.15144881	     -0.49424982	      0.03199829	     80.64562536	    -16.13563575	     48.80774673	     58.02851765	     86.87784619	      0.00000000	      0.00000000	     76.40840952	     -7.31727539	     37.22206160	     52.11789958	     84.35577349	      0.00000000	      0.00000000
      1.82500000	      4.87822356	      1.48590470	     -0.75591538	     -0.31613155	      0.97725525	     -0.80513322	      2.90903625	      2.54213603	    -13.24960922	     16.48896866	      0.28778679	     -4.42109563	      0.00000000	      0.00000000	     24.61376294	     -7.55487500	      0.66059328	     28.33873246	      0.49460419	    -12.72955720	      0.00000000	      0.00000000	    -11.19047811	     -0.51202364	      0.04135292	     80.70479923	    -16.14511173	     48.81977798	     57.96899557	     86.92927095	      0.00000000	      0.00000000	     76.44643490	     -7.27825742	     37.22677621	     52.09415244	     84.20197974	      0.00000000	      0.00000000
      1.83000000	      4.89648110	      1.52111656	     -0.71670811	     -0.31639897	      0.97727656	     -0.80513009	      2.93006538	      2.49959895	    -13.28546189	     16.53462558	      0.28858366	     -4.42786099	      0.00000000	      0.00000000	     24.65986687	     -7.40297056	      0.75650990	     27.59828079	      0.48168087	    -12.92136548	      0.00000000	      0.00000000	    -11.25006163	     -0.51177787	      0.04761323	     80.76510872	    -16.19237945	     48.84529988	     58.02739602	     86.92266108	      0.00000000	      0.00000000	     76.52323528	     -7.23995190	     37.26542441	     52.00978484	     84.18825336	      0.00000000	      0.00000000
      1.83500000	      4.89383027	      1.58495256	     -0.67886474	     -0.31671316	      0.97731052	     -0.80513187	      2.97801452	      2.42439036	    -13.27996448	     16.58407474	      0.28944671	     -4.40370938	      0.00000000	      0.00000000	     24.73896536	     -7.22985242	      0.78516199	     26.90227952	      0.46953335	    -13.20773777	      0.00000000	      0.00000000	    -11.27668557	     -0.53121535	      0.04786187	     80.84634835	    -16.21518140	     48.95885421	     58.01018430	     86.89192674	      0.00000000	      0.00000000	     76.55634089	     -7.25280762	     37.26919841	     51.98089532	     84.34165362	      0.00000000	      0.00000000
